<?xml version="1.0" encoding="utf-8"?>
<!-- Generator: Adobe Illustrator 16.0.0, SVG Export Plug-In . SVG Version: 6.00 Build 0)  -->
<!DOCTYPE svg PUBLIC "-//W3C//DTD SVG 1.1//EN" "http://www.w3.org/Graphics/SVG/1.1/DTD/svg11.dtd">
<svg version="1.1" id="Layer_1" xmlns="http://www.w3.org/2000/svg" xmlns:xlink="http://www.w3.org/1999/xlink" x="0px" y="0px"
	 width="80px" height="80px" viewBox="0 0 80 80" enable-background="new 0 0 80 80" xml:space="preserve">
<g>
	<circle fill="#AF997B" cx="40" cy="40" r="37"/>
	<circle fill="#4D3A2D" cx="40" cy="40" r="33"/>
	<circle fill="#AF997B" cx="40" cy="40.001" r="28.865"/>
	
		<radialGradient id="SVGID_1_" cx="-301.8604" cy="567.5254" r="30.3359" gradientTransform="matrix(1 0 0 1 341.8604 -527.5254)" gradientUnits="userSpaceOnUse">
		<stop  offset="0" style="stop-color:#000000"/>
		<stop  offset="0.3703" style="stop-color:#020202;stop-opacity:0.6274"/>
		<stop  offset="0.5037" style="stop-color:#090909;stop-opacity:0.4931"/>
		<stop  offset="0.5987" style="stop-color:#141414;stop-opacity:0.3974"/>
		<stop  offset="0.6757" style="stop-color:#252525;stop-opacity:0.32"/>
		<stop  offset="0.7415" style="stop-color:#3B3B3B;stop-opacity:0.2537"/>
		<stop  offset="0.7999" style="stop-color:#575757;stop-opacity:0.195"/>
		<stop  offset="0.8526" style="stop-color:#777777;stop-opacity:0.1419"/>
		<stop  offset="0.9011" style="stop-color:#9D9D9D;stop-opacity:0.0931"/>
		<stop  offset="0.9463" style="stop-color:#C8C8C8;stop-opacity:0.0477"/>
		<stop  offset="0.9863" style="stop-color:#F6F6F6;stop-opacity:0.0074"/>
		<stop  offset="0.9936" style="stop-color:#FFFFFF;stop-opacity:0"/>
	</radialGradient>
	<circle fill="url(#SVGID_1_)" cx="40" cy="40" r="30.336"/>
	<g>
		<path fill="#C6B38F" d="M40,3c20.436,0,37,16.565,37,37S60.436,77,40,77C19.565,77,3,60.436,3,40S19.565,3,40,3 M40,0
			C17.944,0,0,17.944,0,40s17.944,40,40,40c22.057,0,40-17.943,40-40S62.057,0,40,0L40,0z"/>
	</g>
	<path d="M54.227,24.924c-0.088-0.145-0.26-0.214-0.424-0.17s-0.279,0.188-0.287,0.356c-0.211,5.357-1.34,13.894-3.461,13.994
		l-0.119,0.002l0,0c-0.494,0-0.844-0.15-1.07-0.461c-0.633-0.869-0.21-2.807,0.013-3.499c0.091-0.346,2.22-8.519,0.183-12.945
		c-0.07-0.158-0.242-0.248-0.414-0.219c-0.172,0.03-0.303,0.173-0.315,0.347c-0.349,4.054-1.563,10.715-3.36,11.323
		c-0.25,0.084-0.445,0.125-0.604,0.125c-0.239,0-0.362-0.09-0.646-0.314c-0.531-0.423-1.336-1.062-3.758-1.062
		c-1.998,0-2.826,0.574-3.431,0.993c-0.512,0.354-0.804,0.502-1.522,0.259c-1.796-0.608-2.984-7.268-3.312-11.321
		c-0.015-0.175-0.145-0.317-0.316-0.348c-0.172-0.032-0.343,0.059-0.416,0.218c-2.036,4.427,0.088,12.6,0.186,12.964
		c0.216,0.673,0.637,2.609,0.002,3.479c-0.227,0.312-0.577,0.463-1.072,0.463l-0.119-0.004c-2.121-0.1-3.256-8.636-3.475-13.994
		c-0.006-0.168-0.123-0.312-0.285-0.355c-0.164-0.044-0.336,0.025-0.425,0.17c-5.702,9.211,4.148,30.118,4.571,31.004
		c0.05,0.104,0.144,0.182,0.257,0.209c0.029,0.008,0.06,0.01,0.089,0.01c0.084,0,0.167-0.025,0.234-0.078
		c3.18-2.439,7.338-2.631,8.538-2.631c0.297,0,0.467,0.012,0.508,0.014l0.129-0.002c0.896,0,5.554,0.127,8.955,2.623
		c0.092,0.066,0.209,0.092,0.318,0.063c0.111-0.027,0.204-0.104,0.256-0.207C50.055,55.043,59.93,34.135,54.227,24.924z"/>
</g>
</svg>
