<?xml version="1.0" encoding="utf-8"?>
<!-- Generator: Adobe Illustrator 16.0.0, SVG Export Plug-In . SVG Version: 6.00 Build 0)  -->
<!DOCTYPE svg PUBLIC "-//W3C//DTD SVG 1.1//EN" "http://www.w3.org/Graphics/SVG/1.1/DTD/svg11.dtd">
<svg version="1.1" id="Layer_1" xmlns="http://www.w3.org/2000/svg" xmlns:xlink="http://www.w3.org/1999/xlink" x="0px" y="0px"
	 width="80px" height="80px" viewBox="0 0 80 80" enable-background="new 0 0 80 80" xml:space="preserve">
<g>
	<circle fill="#AF997B" cx="40" cy="40" r="37"/>
	<circle fill="#4D3A2D" cx="40" cy="40" r="33"/>
	
		<radialGradient id="SVGID_1_" cx="-5.8604" cy="-734.0254" r="30.3359" gradientTransform="matrix(1 0 0 -1 45.8604 -694.0254)" gradientUnits="userSpaceOnUse">
		<stop  offset="0" style="stop-color:#000000"/>
		<stop  offset="0.9067" style="stop-color:#000000;stop-opacity:0.0933"/>
		<stop  offset="1" style="stop-color:#000000;stop-opacity:0"/>
	</radialGradient>
	<circle fill="url(#SVGID_1_)" cx="40" cy="40" r="30.336"/>
	<g>
		<path fill="#C6B38F" d="M40,3c20.436,0,37,16.564,37,37c0,20.435-16.564,37-37,37C19.565,77,3,60.435,3,40C3,19.564,19.565,3,40,3
			 M40,0C17.943,0,0,17.944,0,40c0,22.058,17.944,40,40,40s40-17.942,40-40C80,17.944,62.057,0,40,0L40,0z"/>
	</g>
	<g id="aHQzP3_1_">
		<g>
			<g>
				<path fill="#FF2732" d="M39.791,56.563c6.735,0.268,13.399-4.567,15.68-11.282c2.352-6.937-0.15-14.582-6.191-18.839
					c-3.063-2.158-6.482-3.162-10.229-3.001c-4.684,0.2-8.551,2.153-11.887,5.729c-1.309-1.271-2.564-2.49-3.693-3.588
					c0,4.03,0,8.281,0,12.515c4.246,0,8.418,0,12.59,0c0.061-0.09,0.123-0.179,0.184-0.268c-1.26-1.157-2.52-2.315-3.76-3.455
					c2.354-3.196,6.512-4.454,10.227-3.198c3.822,1.295,6.433,4.94,6.354,8.906c-0.039,2.021-0.635,3.866-1.86,5.483
					c-1.855,2.455-4.386,3.642-7.412,3.783C39.791,51.8,39.791,54.153,39.791,56.563z"/>
			</g>
		</g>
	</g>
</g>
</svg>
