<?xml version="1.0" encoding="utf-8"?>
<!-- Generator: Adobe Illustrator 16.0.0, SVG Export Plug-In . SVG Version: 6.00 Build 0)  -->
<!DOCTYPE svg PUBLIC "-//W3C//DTD SVG 1.1//EN" "http://www.w3.org/Graphics/SVG/1.1/DTD/svg11.dtd">
<svg version="1.1" id="Layer_1" xmlns="http://www.w3.org/2000/svg" xmlns:xlink="http://www.w3.org/1999/xlink" x="0px" y="0px"
	 width="80px" height="80px" viewBox="0 0 80 80" enable-background="new 0 0 80 80" xml:space="preserve">
<g>
	<circle fill="#AF997B" cx="40" cy="40" r="37"/>
	<circle fill="#4D3A2D" cx="40" cy="40" r="33"/>
	
		<radialGradient id="SVGID_1_" cx="-301.8604" cy="567.5254" r="30.3359" gradientTransform="matrix(1 0 0 1 341.8604 -527.5254)" gradientUnits="userSpaceOnUse">
		<stop  offset="0" style="stop-color:#000000"/>
		<stop  offset="0.9067" style="stop-color:#000000;stop-opacity:0.0933"/>
		<stop  offset="1" style="stop-color:#000000;stop-opacity:0"/>
	</radialGradient>
	<circle fill="url(#SVGID_1_)" cx="40" cy="40" r="30.336"/>
	<g>
		<path fill="#C6B38F" d="M40,3c20.436,0,37,16.565,37,37c0,20.437-16.564,37-37,37S3,60.437,3,40C3,19.565,19.566,3,40,3 M40,0
			C17.944,0,0,17.944,0,40c0,22.058,17.944,40,40,40c22.057,0,40-17.942,40-40C80,17.944,62.057,0,40,0L40,0z"/>
	</g>
	<path fill="#48BB4B" d="M39.871,59.892c-1.167,0-2.337-0.035-3.504,0.01c-1.004,0.041-1.52-0.381-1.598-1.381
		c-0.041-0.504-0.134-1.004-0.194-1.506c-0.443-3.58-0.435-3.597-3.636-5.217c-0.339-0.171-0.875-0.15-1.248-0.02
		c-1.336,0.474-2.652,1.009-3.954,1.565c-0.826,0.354-1.425,0.288-1.902-0.569c-1.21-2.17-2.457-4.317-3.707-6.467
		c-0.507-0.869-0.33-1.521,0.501-2.063c0.468-0.303,0.843-0.77,1.338-1c2.482-1.155,2.9-3.234,2.562-5.634
		c-0.061-0.433-0.342-0.927-0.675-1.214c-1.04-0.889-2.133-1.726-3.248-2.52c-0.88-0.625-0.977-1.248-0.412-2.178
		c1.236-2.035,2.4-4.117,3.554-6.203c0.478-0.861,1.056-1.162,1.981-0.709c0.545,0.268,1.125,0.46,1.689,0.686
		c3.242,1.287,3.26,1.311,6.11-0.692c0.382-0.269,0.607-0.899,0.705-1.4c0.251-1.292,0.282-2.636,0.631-3.896
		c0.137-0.499,0.866-1.16,1.352-1.182c2.534-0.119,5.081-0.119,7.614,0.002c0.487,0.023,1.064,0.697,1.369,1.21
		c0.264,0.443,0.286,1.085,0.264,1.632c-0.095,2.507,0.991,4.209,3.369,5.014c0.508,0.172,1.143,0.272,1.629,0.122
		c1.256-0.393,2.479-0.898,3.678-1.444c0.963-0.438,1.593-0.296,2.121,0.671c1.146,2.09,2.345,4.152,3.563,6.197
		c0.546,0.917,0.45,1.6-0.456,2.188c-0.469,0.303-0.891,0.675-1.332,1.018c-2.822,2.206-2.843,2.207-2.604,5.746
		c0.025,0.371,0.371,0.797,0.685,1.063c1.046,0.885,2.126,1.729,3.224,2.551c0.776,0.578,0.991,1.181,0.463,2.068
		c-1.246,2.094-2.451,4.207-3.637,6.335c-0.49,0.884-1.101,1.104-2.002,0.647c-0.449-0.229-0.941-0.371-1.412-0.561
		c-3.316-1.33-3.326-1.346-6.269,0.531c-0.322,0.204-0.591,0.67-0.664,1.057c-0.253,1.344-0.433,2.705-0.601,4.063
		c-0.127,1.021-0.59,1.545-1.688,1.489C42.313,59.844,41.092,59.892,39.871,59.892z M39.979,31.696
		c-3.888-0.048-7.343,3.306-7.42,7.198c-0.079,3.988,3.213,7.426,7.23,7.547c3.911,0.117,7.498-3.363,7.497-7.274
		C47.283,35.136,43.967,31.744,39.979,31.696z"/>
</g>
</svg>
