<?xml version="1.0" encoding="utf-8"?>
<!-- Generator: Adobe Illustrator 16.0.0, SVG Export Plug-In . SVG Version: 6.00 Build 0)  -->
<!DOCTYPE svg PUBLIC "-//W3C//DTD SVG 1.1//EN" "http://www.w3.org/Graphics/SVG/1.1/DTD/svg11.dtd">
<svg version="1.1" id="Layer_1" xmlns="http://www.w3.org/2000/svg" xmlns:xlink="http://www.w3.org/1999/xlink" x="0px" y="0px"
	 width="41.891px" height="41.895px" viewBox="0 0 41.891 41.895" enable-background="new 0 0 41.891 41.895" xml:space="preserve">
<g>
	<circle fill="#AF997B" cx="20.947" cy="20.948" r="18.946"/>
	<circle fill="#C6B38F" cx="20.947" cy="20.947" r="15.761"/>
	
		<linearGradient id="SVGID_1_" gradientUnits="userSpaceOnUse" x1="-330.3811" y1="595.6091" x2="-311.4446" y2="576.6727" gradientTransform="matrix(1 0 0 1 341.8604 -565.1924)">
		<stop  offset="0" style="stop-color:#AF997B"/>
		<stop  offset="0.8095" style="stop-color:#C1AD8B"/>
		<stop  offset="1" style="stop-color:#C6B38F"/>
	</linearGradient>
	<circle fill="url(#SVGID_1_)" cx="20.947" cy="20.948" r="13.39"/>
	<g>
		<path fill="#C6B38F" d="M20.946,2.001c10.465,0,18.946,8.482,18.946,18.946s-8.48,18.947-18.946,18.947
			C10.482,39.894,2,31.412,2,20.947S10.482,2.001,20.946,2.001 M20.946,0.001C9.397,0.001,0,9.397,0,20.947
			c0,11.548,9.396,20.947,20.945,20.947s20.946-9.396,20.946-20.947C41.892,9.397,32.494,0.001,20.946,0.001L20.946,0.001z"/>
	</g>
</g>
</svg>
