<?xml version="1.0" encoding="utf-8"?>
<!-- Generator: Adobe Illustrator 16.0.0, SVG Export Plug-In . SVG Version: 6.00 Build 0)  -->
<!DOCTYPE svg PUBLIC "-//W3C//DTD SVG 1.1//EN" "http://www.w3.org/Graphics/SVG/1.1/DTD/svg11.dtd">
<svg version="1.1" id="Layer_1" xmlns="http://www.w3.org/2000/svg" xmlns:xlink="http://www.w3.org/1999/xlink" x="0px" y="0px"
	 width="102px" height="102px" viewBox="0 0 102 102" enable-background="new 0 0 102 102" xml:space="preserve">
<g>
	<circle fill="#AF997B" cx="51" cy="51" r="48"/>
	<circle fill="#4D3A2D" cx="51" cy="51" r="42.811"/>
	<path fill="none" stroke="#AF997B" stroke-width="2" stroke-miterlimit="10" d="M100.023,60.577
		c0.27-2.156-0.65-15.535-0.773-16.992C73.793,41.464,60.506,27.181,58.386,1.721c-1.457-0.122-13.165-0.129-14.52-0.023
		C41.745,27.271,27.298,41.625,1.688,43.61c-0.12,1.448-0.042,14.795,0.226,16.945c24.779,2.024,38.674,15.258,41.727,39.731
		c1.43,0.116,13.44,0.11,14.971-0.022C61.66,75.898,75.396,62.736,100.023,60.577z"/>
	<path fill="none" stroke="#AF997B" stroke-width="2" stroke-miterlimit="10" d="M93.437,56.366c0.22-1.761,0.347-3.548,0.347-5.366
		c0-1.214-0.063-2.413-0.162-3.602C72.853,45.668,56.304,29.122,54.57,8.352c-1.188-0.1-2.387-0.162-3.6-0.162
		c-1.129,0-2.243,0.057-3.349,0.143C45.892,29.195,29.211,45.8,8.318,47.419c-0.098,1.182-0.16,2.374-0.16,3.582
		c0,1.812,0.126,3.594,0.344,5.347c20.215,1.651,36.445,17.342,38.936,37.308c1.166,0.096,2.343,0.157,3.532,0.157
		c1.275,0,2.537-0.065,3.785-0.177C57.242,73.761,73.345,58.128,93.437,56.366z"/>
	<path opacity="0.3" enable-background="new    " d="M6.56,71.677c0.172,0.121,0.32,0.296,0.395,0.56
		c0.271,0.949,0.575,1.89,0.877,2.83c5.927-6.45,9.443-14.438,9.443-23.084c0-8.851-3.688-17.007-9.871-23.537
		c-0.368,0.564-0.799,1.089-1.261,1.588c0.009,0.482-0.077,0.902-0.264,1.381c4.663,5.816,6.608,12.907,6.608,20.567
		C12.486,59.261,10.735,66.03,6.56,71.677z"/>
	<path fill="#AF997B" stroke="#AF997B" stroke-width="2" stroke-miterlimit="10" d="M74.078,53.921
		c0.119-0.958,0.188-1.931,0.188-2.92c0-0.66-0.033-1.313-0.088-1.96C62.877,48.1,53.871,39.096,52.931,27.794
		c-0.646-0.055-1.3-0.088-1.959-0.088c-0.613,0-1.222,0.03-1.822,0.077C48.208,39.135,39.13,48.17,27.762,49.051
		c-0.053,0.643-0.087,1.292-0.087,1.949c0,0.984,0.068,1.955,0.187,2.909c11,0.899,19.832,9.438,21.188,20.301
		c0.635,0.054,1.273,0.086,1.922,0.086c0.694,0,1.381-0.037,2.06-0.096C54.383,63.386,63.146,54.878,74.078,53.921z"/>
	<path opacity="0.3" enable-background="new    " d="M28.236,94.876c0,0,10.02,2.256,21.047-7.5
		c13.704-12.125,26.954-4.25,33.079,1.875c0,0,4.988-3.752,4.244-6.063c-0.744-2.311-20.549-8.722-32.834-3.953
		c-12.286,4.767-15.661,10.601-29.286,10.683C24.486,89.917,23.494,94.247,28.236,94.876z"/>
	<g>
		<path fill="#C6B38F" d="M51,3c26.51,0,48,21.49,48,48S77.51,99,51,99C24.49,99,3,77.51,3,51C3,24.491,24.491,3,51,3 M51,0
			C22.877,0,0,22.878,0,51s22.878,51,51,51c28.121,0,51-22.879,51-51S79.121,0,51,0L51,0z"/>
	</g>
	
		<radialGradient id="SVGID_1_" cx="-290.8608" cy="558.6172" r="39.3552" gradientTransform="matrix(1 0 0 1 341.8604 -507.6172)" gradientUnits="userSpaceOnUse">
		<stop  offset="0" style="stop-color:#000000"/>
		<stop  offset="0.9067" style="stop-color:#000000;stop-opacity:0.0933"/>
		<stop  offset="1" style="stop-color:#000000;stop-opacity:0"/>
	</radialGradient>
	<circle fill="url(#SVGID_1_)" cx="51" cy="51" r="39.355"/>
	<path fill="#C6B38F" d="M7.5,26.226c-0.012,0.064-0.018,0.126-0.045,0.194c-0.034,0.085-0.081,0.163-0.116,0.248
		c0.003,0.001,0.007,0.003,0.01,0.004c-0.014,0.022-0.03,0.045-0.044,0.067c-0.006,0.014-0.013,0.026-0.019,0.04
		c0.084,0.197,0.113,0.417,0.044,0.641c-0.188,0.611-0.448,1.18-0.731,1.752c-0.03,0.062-0.069,0.105-0.105,0.155
		c6.34,6.165,10.148,14.054,10.148,22.653c0,8.307-3.563,15.942-9.52,22.012c0.033,0.039,0.073,0.068,0.102,0.115
		c0.54,0.846,0.974,1.73,1.305,2.664c6.929-6.725,11.112-15.365,11.112-24.793C19.641,42.097,15.041,33.076,7.5,26.226z"/>
	<path fill="none" stroke="#C6B38F" stroke-width="3" stroke-miterlimit="10" d="M87.902,84.059c0,0-10.5-7.998-25.666-6.349
		c-18.454,2.01-23.375,16.103-42.596,11.166"/>
</g>
</svg>
