<?xml version="1.0" encoding="utf-8"?>
<!-- Generator: Adobe Illustrator 16.0.0, SVG Export Plug-In . SVG Version: 6.00 Build 0)  -->
<!DOCTYPE svg PUBLIC "-//W3C//DTD SVG 1.1//EN" "http://www.w3.org/Graphics/SVG/1.1/DTD/svg11.dtd">
<svg version="1.1" id="Layer_1" xmlns="http://www.w3.org/2000/svg" xmlns:xlink="http://www.w3.org/1999/xlink" x="0px" y="0px"
	 width="28.678px" height="6.125px" viewBox="0 0 28.678 6.125" enable-background="new 0 0 28.678 6.125" xml:space="preserve">
<g>
	<path d="M23.996,6.01c0.252,0,0.66,0.102,1.223,0.301c1.125-0.553,2.281-1.074,3.459-1.5c-0.166-0.92-0.313-1.626-0.434-2.078
		c-0.052-0.129-0.078-0.244-0.078-0.348c0.154-0.18,0.229-0.358,0.229-0.539c0-0.051-0.021-0.248-0.074-0.596
		c-0.052-0.348-0.076-0.699-0.076-1.061H17.375c-0.256,0.104-0.474,0.257-0.65,0.459h-0.422c-0.866-0.484-1.965-0.6-3.292-0.344
		c-1.3-0.076-2.282-0.09-2.946-0.038c-0.103,0-0.332-0.063-0.688-0.19C9.096,0,8.854-0.026,8.649,0
		C7.246,0.279,6.252,0.344,5.665,0.189C5.23,0.037,4.655-0.015,3.942,0.037C3.38,0.088,2.806,0.14,2.219,0.189
		c-0.103,0-0.472-0.178-1.109-0.535l-0.152,0.19L0.842-0.27L0,0.343c0.278,0.512,0.484,0.88,0.611,1.108
		C0.536,1.785,0.7,2.09,1.11,2.371c0.204,0.152,0.318,0.332,0.345,0.535c0.688,0.715,1.032,1.086,1.032,1.109
		c0,0.666-0.013,1.01-0.038,1.033c0.112,0.463,0.2,0.824,0.267,1.104h1.806c0.329,0,0.628,0.045,0.911,0.111
		c0.001-0.021,0.004-0.051,0.004-0.064c3.774-0.279,5.523-0.422,5.243-0.422c0.025,0,0.294,0.092,0.804,0.27
		c0.484,0.179,1.326,0.125,2.525-0.159c0.256-0.072,0.498-0.107,0.728-0.107c0.817,0,1.303,0.229,1.454,0.689h4.172
		c0.256,0,0.935-0.076,2.028-0.23L23.996,6.01z"/>
</g>
</svg>
