<?xml version="1.0" encoding="utf-8"?>
<!-- Generator: Adobe Illustrator 16.0.0, SVG Export Plug-In . SVG Version: 6.00 Build 0)  -->
<!DOCTYPE svg PUBLIC "-//W3C//DTD SVG 1.1//EN" "http://www.w3.org/Graphics/SVG/1.1/DTD/svg11.dtd">
<svg version="1.1" id="Layer_1" xmlns="http://www.w3.org/2000/svg" xmlns:xlink="http://www.w3.org/1999/xlink" x="0px" y="0px"
	 width="235.361px" height="51.055px" viewBox="0 0 235.361 51.055" enable-background="new 0 0 235.361 51.055"
	 xml:space="preserve">
<g>
	<g>
		<g>
			<path fill="#AF997B" d="M53.073,3.069c-0.642,0.528-1.315,0.986-2.012,1.397h141.015c-2.033-1.433-8.055-2.896-10.006-4.444
				H55.103C54.845,1.101,54.226,2.119,53.073,3.069z"/>
			<path fill="#AF997B" d="M234.684,46.002v-1.586c-1.516,0.064-3.016,0.004-4.447-0.195v1.781H4.446v-1.754
				c-1.453,0.465-2.953,0.846-4.444,1.266v5.541h4.444v-0.607h225.79v0.605h4.447v-0.605h0.605v-4.443h-0.605v-0.002H234.684z"/>
			<polygon fill="#D7D2D1" points="203.255,5.073 33.073,5.073 5.05,46.002 230.235,46.002 			"/>
			
				<linearGradient id="SVGID_1_" gradientUnits="userSpaceOnUse" x1="-467.2175" y1="1581.8103" x2="-467.2175" y2="1586.613" gradientTransform="matrix(1 0 0 1 584.8604 -1540.6094)">
				<stop  offset="0" style="stop-color:#FFFFFF;stop-opacity:0"/>
				<stop  offset="1" style="stop-color:#000000"/>
			</linearGradient>
			<rect x="5.05" y="41.201" opacity="0.5" fill="url(#SVGID_1_)" enable-background="new    " width="225.185" height="4.803"/>
			
				<linearGradient id="SVGID_2_" gradientUnits="userSpaceOnUse" x1="-3363.5955" y1="-978.2083" x2="-3363.5955" y2="-973.4065" gradientTransform="matrix(-1 0 0 -1 -3241.5024 -968.3325)">
				<stop  offset="0" style="stop-color:#FFFFFF;stop-opacity:0"/>
				<stop  offset="1" style="stop-color:#000000"/>
			</linearGradient>
			<rect x="42.128" y="5.073" opacity="0.5" fill="url(#SVGID_2_)" enable-background="new    " width="159.929" height="4.802"/>
			
				<linearGradient id="SVGID_3_" gradientUnits="userSpaceOnUse" x1="-628.4041" y1="1543.7566" x2="-512.8552" y2="1543.7566" gradientTransform="matrix(1.0479 -4.000000e-004 4.000000e-004 1 719.6398 -1541.4219)">
				<stop  offset="0" style="stop-color:#FFFFFF;stop-opacity:0"/>
				<stop  offset="0.5499" style="stop-color:#4D3A2D"/>
				<stop  offset="0.9936" style="stop-color:#FFFFFF;stop-opacity:0"/>
			</linearGradient>
			<polygon opacity="0.5" fill="url(#SVGID_3_)" enable-background="new    " points="182.835,5.067 61.753,5.111 61.753,0.059 
				182.835,0.014 			"/>
			
				<linearGradient id="SVGID_4_" gradientUnits="userSpaceOnUse" x1="-575.0085" y1="1589.1384" x2="-389.0081" y2="1589.1384" gradientTransform="matrix(1 0 0 1 584.8604 -1540.6094)">
				<stop  offset="0" style="stop-color:#FFFFFF;stop-opacity:0"/>
				<stop  offset="0.5499" style="stop-color:#4D3A2D"/>
				<stop  offset="0.9936" style="stop-color:#FFFFFF;stop-opacity:0"/>
			</linearGradient>
			<rect x="9.852" y="46.004" opacity="0.5" fill="url(#SVGID_4_)" enable-background="new    " width="186" height="5.051"/>
		</g>
		<rect x="31.086" y="3.862" fill="#C6B38F" width="171.993" height="1.212"/>
		<g>
			<rect x="52.979" y="0.022" fill="#C6B38F" width="128.577" height="1.213"/>
			<path fill="#C6B38F" d="M1.211,46.002H0.949h-0.95v3.838v1.215h1.213h232.865h1.211V49.84v-3.838H1.211z M1.211,49.84v-2.627
				h232.864v2.627H1.211z"/>
		</g>
		<g>
			<g>
				<g opacity="0.4">
					<path fill="#4D3A2D" d="M230.792,45.679c0,0,8.133-45.679-50.475-45.679c0,0-2.951,0.504-2.951,2.905
						c0,2.4,2.051,2.961,2.051,2.961S204.891,6.263,205.307,46L230.792,45.679z"/>
				</g>
				<g>
					<path fill="#AF997B" d="M207.757,46.713c-0.225-40.034-26.969-42.084-27.234-42.102c-0.166-0.015-1.695-0.195-1.695-2.057
						c0-1.858,1.377-2.042,1.535-2.057c19.27,0.002,33.82,5.136,43.205,15.265c11.344,12.244,11.369,28.062,11.27,30.949h-27.08
						V46.713z"/>
					<path fill="#C6B38F" d="M180.376,1.001c19.127,0.011,33.525,5.084,42.805,15.084c10.697,11.53,11.227,26.319,11.17,30.127
						h-26.1c-0.137-11.658-2.697-27.004-13.744-36.021c-6.861-5.602-13.672-6.063-13.943-6.081
						c-0.207-0.016-1.236-0.158-1.236-1.558C179.325,1.304,180.034,1.05,180.376,1.001 M180.317,0.001c0,0-1.992,0.152-1.992,2.555
						c0,2.401,2.166,2.556,2.166,2.556s26.771,1.586,26.771,42.103h28.057C235.315,47.213,238.925,0.001,180.317,0.001
						L180.317,0.001z"/>
				</g>
				<path opacity="0.4" fill="#4D3A2D" enable-background="new    " d="M195.876,6.267c0,0,17.654,8.886,17.654,40.153h15.721
					C229.251,46.42,227.087,13.272,195.876,6.267z"/>
				<path fill="none" stroke="#C6B38F" stroke-linejoin="round" stroke-miterlimit="10" d="M195.876,6.267
					c0,0,17.654,8.886,17.654,40.153h15.721C229.251,46.42,227.087,13.272,195.876,6.267z"/>
				<path opacity="0.3" enable-background="new    " d="M221.856,45.793l-7.607-1.926c-0.27-0.066-0.469-0.293-0.508-0.566
					s0.096-0.547,0.334-0.688l11.305-6.523l-12.15-1.283c-0.271-0.027-0.492-0.211-0.576-0.467c-0.082-0.258-0.01-0.537,0.188-0.721
					l8.23-7.459l-10.521-0.659c-0.24-0.017-0.459-0.156-0.564-0.373c-0.109-0.217-0.098-0.475,0.033-0.679l4.227-6.604l-8.43-1.073
					c-0.365-0.046-0.629-0.375-0.596-0.741l0.502-5.315l1.359,0.127l-0.438,4.66l8.846,1.125c0.23,0.029,0.432,0.176,0.531,0.39
					c0.1,0.212,0.082,0.46-0.045,0.657l-4.184,6.539l10.98,0.688c0.27,0.018,0.512,0.196,0.604,0.455
					c0.092,0.26,0.018,0.549-0.188,0.731l-8.297,7.521l12.727,1.344c0.293,0.031,0.533,0.248,0.596,0.537
					c0.063,0.291-0.068,0.586-0.326,0.732l-11.668,6.734l11.377,2.877L221.856,45.793z"/>
				<polyline fill="none" stroke="#C6B38F" stroke-linejoin="round" stroke-miterlimit="10" points="205.391,9.564 204.889,14.88 
					214.389,16.091 209.581,23.607 221.716,24.367 212.288,32.914 226.532,34.42 213.407,41.994 229.251,46.002 				"/>
			</g>
		</g>
		<g>
			<g opacity="0.4">
				<path fill="#4D3A2D" d="M4.566,45.679C4.566,45.679-3.567,0,55.04,0c0,0,2.95,0.504,2.95,2.905c0,2.4-2.051,2.961-2.051,2.961
					S30.469,6.266,30.052,46.002L4.566,45.679z"/>
			</g>
			<g>
				<path fill="#AF997B" d="M0.52,46.713C0.423,43.82,0.459,27.986,11.802,15.755C21.186,5.632,35.733,0.501,55.038,0.501
					c0.115,0.013,1.493,0.195,1.493,2.055c0,1.915-1.632,2.051-1.701,2.057c-0.266,0.017-27.009,2.066-27.229,42.102H0.52V46.713z"
					/>
				<path fill="#C6B38F" d="M54.981,1.001c0.343,0.05,1.053,0.304,1.053,1.555c0,1.294-0.874,1.521-1.225,1.558
					c-0.287,0.018-7.095,0.479-13.957,6.081c-11.046,9.017-13.61,24.36-13.746,36.02H1.008c-0.056-3.809,0.472-18.598,11.17-30.129
					C21.452,6.085,35.855,1.011,54.981,1.001 M55.039,0.001c-58.605,0-54.996,47.211-54.996,47.211h28.058
					c0-40.518,26.768-42.104,26.768-42.104s2.166-0.152,2.166-2.556C57.032,0.155,55.039,0.001,55.039,0.001L55.039,0.001z"/>
			</g>
			<path opacity="0.4" fill="#4D3A2D" enable-background="new    " d="M39.481,6.267c0,0-17.656,8.886-17.656,40.153H6.106
				C6.106,46.42,8.27,13.272,39.481,6.267z"/>
			<path fill="none" stroke="#C6B38F" stroke-linejoin="round" stroke-miterlimit="10" d="M39.481,6.267
				c0,0-17.656,8.886-17.656,40.153H6.106C6.106,46.42,8.27,13.272,39.481,6.267z"/>
			<path opacity="0.3" enable-background="new    " d="M13.501,45.793l7.605-1.926c0.271-0.066,0.47-0.293,0.509-0.566
				c0.038-0.273-0.095-0.547-0.335-0.688L9.979,36.09l12.15-1.283c0.27-0.027,0.493-0.211,0.577-0.467
				c0.083-0.258,0.009-0.537-0.189-0.723l-8.229-7.459l10.521-0.657c0.241-0.018,0.458-0.158,0.566-0.373
				c0.108-0.218,0.098-0.476-0.034-0.68l-4.227-6.604l8.43-1.074c0.365-0.046,0.629-0.375,0.596-0.741l-0.502-5.316l-1.362,0.129
				l0.439,4.658l-8.845,1.127c-0.229,0.028-0.432,0.176-0.531,0.389c-0.1,0.212-0.083,0.46,0.044,0.658l4.182,6.537l-10.977,0.688
				c-0.272,0.019-0.512,0.197-0.603,0.456c-0.091,0.26-0.019,0.549,0.187,0.732l8.297,7.52L7.743,34.951
				c-0.294,0.029-0.534,0.248-0.597,0.537c-0.063,0.291,0.069,0.586,0.327,0.732l11.665,6.732L7.763,45.828L13.501,45.793z"/>
			<polyline fill="none" stroke="#C6B38F" stroke-linejoin="round" stroke-miterlimit="10" points="29.966,9.564 30.469,14.88 
				20.97,16.091 25.777,23.607 13.641,24.367 23.069,32.914 8.825,34.42 21.949,41.994 6.106,46.002 			"/>
		</g>
	</g>
	<g>
		<circle fill="#4D3A2D" cx="217.087" cy="25.694" r="14.138"/>
		<path opacity="0.3" enable-background="new    " d="M231.225,28.138c0,7.809-6.33,14.139-14.141,14.139
			s-14.139-6.33-14.139-14.139c0,0,3.135,12.703,14.633,11.693C228.255,38.894,231.225,28.138,231.225,28.138z"/>
		<circle fill="none" stroke="#C6B38F" stroke-linejoin="round" stroke-miterlimit="10" cx="217.087" cy="25.694" r="14.138"/>
		<g>
			<path fill="none" d="M211.346,28.385c0.988,0.982,1.977,1.973,2.941,2.938c2.504-2.504,5.016-5.014,7.512-7.512
				c-0.975-0.975-1.959-1.961-2.938-2.941C216.36,23.372,213.852,25.88,211.346,28.385z M222.62,23.033
				c0.008-0.006,0.021-0.013,0.033-0.021c0.479-0.479,0.971-0.952,1.438-1.444c0.4-0.421,0.428-0.976,0.037-1.396
				c-0.451-0.49-0.934-0.957-1.414-1.418c-0.484-0.461-1.27-0.453-1.758,0.004c-0.311,0.291-0.604,0.597-0.902,0.895
				c-0.143,0.136-0.277,0.271-0.414,0.4C220.643,21.056,221.63,22.042,222.62,23.033z M210.512,29.228
				c0,0.006-0.01,0.014-0.016,0.025c-0.234,1.078-0.479,2.156-0.719,3.236c-0.08,0.354,0.121,0.553,0.465,0.469
				c0.82-0.199,1.645-0.396,2.459-0.6c0.254-0.063,0.512-0.123,0.762-0.188C212.477,31.191,211.497,30.213,210.512,29.228z"/>
			<path d="M211.346,28.385c2.506-2.504,5.016-5.014,7.518-7.517c0.979,0.979,1.965,1.968,2.938,2.941
				c-2.498,2.5-5.008,5.009-7.512,7.513C213.321,30.357,212.335,29.371,211.346,28.385z"/>
			<path d="M222.62,23.033c-0.99-0.988-1.979-1.978-2.979-2.98c0.137-0.131,0.271-0.266,0.414-0.399
				c0.303-0.298,0.598-0.603,0.9-0.894c0.488-0.459,1.271-0.467,1.76-0.004c0.48,0.459,0.963,0.926,1.414,1.416
				c0.391,0.422,0.363,0.976-0.035,1.396c-0.473,0.492-0.959,0.964-1.439,1.443C222.645,23.021,222.626,23.028,222.62,23.033z"/>
			<path d="M210.512,29.228c0.982,0.984,1.965,1.963,2.951,2.947c-0.25,0.063-0.508,0.125-0.762,0.188
				c-0.814,0.199-1.641,0.396-2.459,0.598c-0.344,0.086-0.545-0.111-0.465-0.467c0.236-1.078,0.479-2.158,0.719-3.238
				C210.503,29.242,210.512,29.234,210.512,29.228z"/>
		</g>
	</g>
</g>
</svg>
