<?xml version="1.0" encoding="utf-8"?>
<!-- Generator: Adobe Illustrator 16.0.0, SVG Export Plug-In . SVG Version: 6.00 Build 0)  -->
<!DOCTYPE svg PUBLIC "-//W3C//DTD SVG 1.1//EN" "http://www.w3.org/Graphics/SVG/1.1/DTD/svg11.dtd">
<svg version="1.1" id="Layer_1" xmlns="http://www.w3.org/2000/svg" xmlns:xlink="http://www.w3.org/1999/xlink" x="0px" y="0px"
	 width="27.095px" height="28.534px" viewBox="0 0 27.095 28.534" enable-background="new 0 0 27.095 28.534" xml:space="preserve">
<path d="M26.406,14.274c-0.051-0.128-0.078-0.244-0.078-0.347c0.154-0.179,0.23-0.359,0.23-0.539c0-0.051-0.025-0.249-0.076-0.596
	s-0.076-0.699-0.076-1.06h-9.584c0.025-0.767,0.023-1.39-0.014-1.851c0-0.103,0.064-0.332,0.193-0.688
	c0.076-0.282,0.102-0.523,0.076-0.728c-0.281-1.403-0.344-2.397-0.191-2.985c0.15-0.434,0.205-1.009,0.15-1.722
	c-0.051-0.562-0.102-1.136-0.15-1.723c0-0.102,0.18-0.471,0.537-1.109L17.23,0.773l0.041-0.04C16.951,0.526,16.656,0.279,16.4,0
	c-0.328,0.182-0.605,0.335-0.775,0.43c-0.333-0.076-0.638,0.089-0.918,0.498c-0.153,0.204-0.332,0.319-0.537,0.344
	c-0.714,0.689-1.084,1.033-1.108,1.033c-0.664,0-1.008-0.013-1.035-0.039c-0.159,0.039-0.28,0.068-0.415,0.1
	c0.081,0.315,0.138,0.641,0.13,0.98c-0.025,1.086-0.249,2.247-0.763,3.234c0.188,2.498,0.293,3.811,0.316,3.935
	c-0.012,0.058-0.099,0.312-0.263,0.784c-0.054,0.145-0.079,0.33-0.091,0.537c-1.18-0.062-2.092-0.073-2.714-0.025
	c-0.103,0-0.332-0.064-0.688-0.192c-0.282-0.076-0.523-0.102-0.728-0.076c-1.403,0.28-2.397,0.345-2.985,0.191
	c-0.434-0.152-1.009-0.204-1.722-0.152c-0.512,0.047-1.036,0.092-1.568,0.139C0.219,12.734,0.065,13.779,0,14.854
	c0.427,0.446,0.648,0.689,0.648,0.708c0,0.664-0.014,1.008-0.039,1.033c0.038,0.152,0.068,0.281,0.101,0.414
	c0.4-0.02,0.794,0.006,1.137,0.145c0.049,0.023,0.102,0.031,0.151,0.05c0.64,0.032,1.238,0.228,1.768,0.528
	c3.649-0.272,5.35-0.41,5.073-0.41c0.025,0,0.294,0.093,0.804,0.269c0.236,0.089,0.562,0.119,0.968,0.095v2.496
	c0,0.256,0.076,0.932,0.229,2.028l0.229,1.606c0,0.256-0.103,0.67-0.307,1.244c-0.203,0.574-0.306,1.078-0.306,1.512
	c0,0.004,0.003,0.01,0.003,0.014c0.103,0.096,0.211,0.186,0.299,0.296c0.44,0.552,0.881,1.103,1.323,1.652
	c1.02-0.183,1.78-0.341,2.264-0.47c0.128-0.051,0.244-0.078,0.347-0.078c0.181,0.156,0.359,0.23,0.541,0.23
	c0.049,0,0.248-0.023,0.593-0.074c0.35-0.053,0.699-0.078,1.063-0.078V18.011h1.635c0.254,0,0.932-0.076,2.027-0.23l1.607-0.229
	c0.256,0,0.668,0.102,1.244,0.307c0.574,0.203,1.078,0.305,1.512,0.305c0.18,0,0.445-0.076,0.805-0.23
	c0.229-0.076,0.688-0.115,1.377-0.115C26.814,16.124,26.585,14.942,26.406,14.274z"/>
</svg>
